<svg width="16" height="16" viewBox="0 0 16 16" fill="none" xmlns="http://www.w3.org/2000/svg">
<path d="M13 3.5L13.449 4.88197H14.9021L13.7265 5.73607L14.1756 7.11803L13 6.26393L11.8244 7.11803L12.2735 5.73607L11.0979 4.88197H12.551L13 3.5Z" fill="currentColor"/>
<path d="M10 9.5L10.2245 10.191H10.9511L10.3633 10.618L10.5878 11.309L10 10.882L9.41221 11.309L9.63673 10.618L9.04894 10.191H9.77549L10 9.5Z" fill="currentColor"/>
<path fill-rule="evenodd" clip-rule="evenodd" d="M3.93325 2.23804C5.42447 1.01745 7.4248 0.499494 9.50002 0.5L11.1506 0.500403L9.77726 1.41602C9.68926 1.47469 9.59867 1.53419 9.50604 1.59504C8.78424 2.06916 7.93819 2.6249 7.22568 3.50289C6.43718 4.4745 5.7999 5.86327 5.7999 8.00259C5.7999 10.1419 6.43716 11.5292 7.2255 12.4996C7.93621 13.3743 8.77956 13.9284 9.50047 14.402C9.59508 14.4641 9.68758 14.5249 9.7774 14.5848L11.1502 15.5007H9.4999C7.42506 15.5007 5.42478 14.984 3.9335 13.7647C2.42612 12.5323 1.5 10.6316 1.5 8.00259C1.5 5.37364 2.42605 3.47172 3.93325 2.23804ZM4.56665 3.01187C3.32389 4.02909 2.5 5.62895 2.5 8.00259C2.5 10.3762 3.32388 11.9746 4.56647 12.9905C5.41613 13.6852 6.48951 14.1302 7.68953 14.346C7.2701 14.0105 6.84116 13.6124 6.44937 13.1301C5.51268 11.9772 4.7999 10.3659 4.7999 8.00259C4.7999 5.63932 5.51266 4.02679 6.44919 2.87275C6.84136 2.38951 7.27068 1.99063 7.69049 1.65451C6.4902 1.87051 5.41653 2.31622 4.56665 3.01187Z" fill="currentColor"/>
</svg>
